<svg xmlns="http://www.w3.org/2000/svg" width="495" height="195" viewBox="0 0 495 195" role="img" aria-label="Most used languages">
<title>Most used languages</title>
<style>
  svg { font-family: -apple-system,BlinkMacSystemFont,'Segoe UI','Noto Sans',Helvetica,Arial,sans-serif; fill: #c9d1d9; }
  .heading { font-size: 16px; font-weight: 600; fill: #e6edf3; }
  .label { font-size: 13px; }
  .value { font-size: 13px; font-weight: 600; fill: #e6edf3; }
  .small { font-size: 11px; fill: #8b949e; }
  .fade { animation: fade .6s ease-out both; }
  @keyframes fade { from { opacity: 0; } }
  
  @media (prefers-reduced-motion: reduce) { * { animation: none !important; } }
</style>
<rect x="0.5" y="0.5" width="494" height="194" rx="10" fill="#0d1117" stroke="#30363d"/>
<text x="25" y="36" class="heading">Most used languages</text><text x="470" y="36" class="small" text-anchor="end">each repo weighs the same</text>
<circle cx="110" cy="112" r="50" fill="none" stroke="#f1e05a" stroke-width="20" pathLength="100" stroke-dasharray="24.11 75.89" stroke-dashoffset="-0.00" transform="rotate(-90 110 112)"><title>JavaScript: 24.7%</title></circle>
<circle cx="110" cy="112" r="50" fill="none" stroke="#3572A5" stroke-width="20" pathLength="100" stroke-dasharray="23.69 76.31" stroke-dashoffset="-24.71" transform="rotate(-90 110 112)"><title>Python: 24.3%</title></circle>
<circle cx="110" cy="112" r="50" fill="none" stroke="#e34c26" stroke-width="20" pathLength="100" stroke-dasharray="20.29 79.71" stroke-dashoffset="-49.00" transform="rotate(-90 110 112)"><title>HTML: 20.9%</title></circle>
<circle cx="110" cy="112" r="50" fill="none" stroke="#663399" stroke-width="20" pathLength="100" stroke-dasharray="14.61 85.39" stroke-dashoffset="-69.90" transform="rotate(-90 110 112)"><title>CSS: 15.2%</title></circle>
<circle cx="110" cy="112" r="50" fill="none" stroke="#F05138" stroke-width="20" pathLength="100" stroke-dasharray="10.51 89.49" stroke-dashoffset="-85.11" transform="rotate(-90 110 112)"><title>Swift: 11.1%</title></circle>
<circle cx="110" cy="112" r="50" fill="none" stroke="#8b949e" stroke-width="20" pathLength="100" stroke-dasharray="3.18 96.82" stroke-dashoffset="-96.22" transform="rotate(-90 110 112)"><title>Other: 3.8%</title></circle>
<text x="110" y="114" text-anchor="middle" font-size="18" font-weight="700" fill="#e6edf3">25%</text><text x="110" y="130" text-anchor="middle" class="small">JavaScript</text>
<g class="fade" style="animation-delay:0.10s"><circle cx="215" cy="68" r="5" fill="#f1e05a"/><text x="230" y="72" class="label">JavaScript</text><line x1="330" x2="430.0" y1="68" y2="68" stroke="#f1e05a" stroke-width="6" stroke-linecap="round" opacity=".8"/><text x="470" y="72" class="small" text-anchor="end">24.7%</text></g>
<g class="fade" style="animation-delay:0.18s"><circle cx="215" cy="89" r="5" fill="#3572A5"/><text x="230" y="93" class="label">Python</text><line x1="330" x2="428.3" y1="89" y2="89" stroke="#3572A5" stroke-width="6" stroke-linecap="round" opacity=".8"/><text x="470" y="93" class="small" text-anchor="end">24.3%</text></g>
<g class="fade" style="animation-delay:0.26s"><circle cx="215" cy="110" r="5" fill="#e34c26"/><text x="230" y="114" class="label">HTML</text><line x1="330" x2="414.5" y1="110" y2="110" stroke="#e34c26" stroke-width="6" stroke-linecap="round" opacity=".8"/><text x="470" y="114" class="small" text-anchor="end">20.9%</text></g>
<g class="fade" style="animation-delay:0.34s"><circle cx="215" cy="131" r="5" fill="#663399"/><text x="230" y="135" class="label">CSS</text><line x1="330" x2="391.6" y1="131" y2="131" stroke="#663399" stroke-width="6" stroke-linecap="round" opacity=".8"/><text x="470" y="135" class="small" text-anchor="end">15.2%</text></g>
<g class="fade" style="animation-delay:0.42s"><circle cx="215" cy="152" r="5" fill="#F05138"/><text x="230" y="156" class="label">Swift</text><line x1="330" x2="375.0" y1="152" y2="152" stroke="#F05138" stroke-width="6" stroke-linecap="round" opacity=".8"/><text x="470" y="156" class="small" text-anchor="end">11.1%</text></g>
<g class="fade" style="animation-delay:0.50s"><circle cx="215" cy="173" r="5" fill="#8b949e"/><text x="230" y="177" class="label">Other</text><line x1="330" x2="345.3" y1="173" y2="173" stroke="#8b949e" stroke-width="6" stroke-linecap="round" opacity=".8"/><text x="470" y="177" class="small" text-anchor="end">3.8%</text></g>
</svg>
